<svg xmlns="http://www.w3.org/2000/svg" width="1880" height="840"><g transform="translate(500 -80)"><defs><marker id="closed-circle-at-center" viewBox="0 0 10 10" refX="5" refY="5" markerUnits="userSpaceOnUse" markerWidth="8" markerHeight="8" orient="auto-start-reverse"><circle cx="5" cy="5" r="5" fill="context-fill" stroke="context-stroke"/></marker><marker id="closed-circle-at-border" viewBox="0 0 10 10" refX="10" refY="5" markerUnits="userSpaceOnUse" markerWidth="8" markerHeight="8" orient="auto-start-reverse"><circle cx="5" cy="5" r="5" fill="context-fill" stroke="context-stroke"/></marker><marker id="closed-arrow" viewBox="0 0 10 10" refX="10" refY="5" markerUnits="userSpaceOnUse" markerWidth="8" markerHeight="8" orient="auto-start-reverse"><path d="M 0 0 L 10 5 L 0 10 z" fill="context-fill" stroke="context-stroke"/></marker><marker id="open-arrow" viewBox="0 0 10 10" refX="10" refY="5" markerUnits="userSpaceOnUse" markerWidth="8" markerHeight="8" orient="auto-start-reverse"><path d="M 0,0 L 10,5 M 10,5 L 0,10" stroke="black"/></marker></defs><g id="_7D596604-3367-41D9-A13F-17674AF8F7A9" bpmn2nodeid="_7D596604-3367-41D9-A13F-17674AF8F7A9"><path marker-end="url(#closed-arrow)" d="M -420,290 L -340,290" style="stroke-width: 1; stroke: black;"/></g><g id="_5B3D2243-7A8A-41F9-A05F-01329246F3ED" bpmn2nodeid="_5B3D2243-7A8A-41F9-A05F-01329246F3ED"><path marker-end="url(#closed-arrow)" d="M -180,290 L -100,290" style="stroke-width: 1; stroke: black;"/></g><g id="_828093DF-A28F-4B9F-8A6C-8E9D84E80598" bpmn2nodeid="_828093DF-A28F-4B9F-8A6C-8E9D84E80598"><path marker-end="url(#closed-arrow)" d="M -70,260 L -70,150 M -70,150 L 100,150" style="stroke-width: 1; stroke: black;"/></g><g id="_E46CE34F-D080-4CF7-BB10-1C0C6866756F" bpmn2nodeid="_E46CE34F-D080-4CF7-BB10-1C0C6866756F"><path marker-end="url(#closed-arrow)" d="M 260,150 L 320,150" style="stroke-width: 1; stroke: black;"/></g><g id="_1455065A-A9E1-45B6-A164-EF3392D910E5" bpmn2nodeid="_1455065A-A9E1-45B6-A164-EF3392D910E5"><path marker-end="url(#closed-arrow)" d="M 930,700 L 930,790 M 930,790 L 1060,790" style="stroke-width: 1; stroke: black;"/></g><g id="_7DF9919C-A01A-4562-A7E5-51091BFF95B8" bpmn2nodeid="_7DF9919C-A01A-4562-A7E5-51091BFF95B8"><path marker-end="url(#closed-arrow)" d="M 1220,790 L 1300,790" style="stroke-width: 1; stroke: black;"/></g><g id="_381335C3-113F-4799-8D19-51B929936D6B" bpmn2nodeid="_381335C3-113F-4799-8D19-51B929936D6B"><path marker-end="url(#closed-arrow)" d="M 930,640 L 930,570 M 930,570 L 1060,570" style="stroke-width: 1; stroke: black;"/></g><g id="_2AA31D50-B0A8-4387-AC24-35B8D4CA4E65" bpmn2nodeid="_2AA31D50-B0A8-4387-AC24-35B8D4CA4E65"><path marker-end="url(#closed-arrow)" d="M 1220,570 L 1300,570" style="stroke-width: 1; stroke: black;"/></g><g id="_D52B226B-D513-44AE-AB5D-B3D8588A4468" bpmn2nodeid="_D52B226B-D513-44AE-AB5D-B3D8588A4468"><path marker-end="url(#closed-arrow)" d="M 780,670 L 900,670" style="stroke-width: 1; stroke: black;"/></g><g id="_3266B378-985B-4CCD-B54D-E5FEDD3F07E4" bpmn2nodeid="_3266B378-985B-4CCD-B54D-E5FEDD3F07E4"><path marker-end="url(#closed-arrow)" d="M -70,320 L -70,450 M -70,450 L 100,450" style="stroke-width: 1; stroke: black;"/></g><g id="_98847B26-6451-4DFB-8AFC-6DFE229D06C9" bpmn2nodeid="_98847B26-6451-4DFB-8AFC-6DFE229D06C9"><path marker-end="url(#closed-arrow)" d="M 280,450 L 320,450" style="stroke-width: 1; stroke: black;"/></g><g id="_7A605C4E-A53D-4C83-9708-D7503A09FF53" bpmn2nodeid="_7A605C4E-A53D-4C83-9708-D7503A09FF53"><path marker-end="url(#closed-arrow)" d="M 700,450 L 780,450" style="stroke-width: 1; stroke: black;"/></g><g id="_3FB15B7B-C29B-49DB-ADF2-B48087C2DB16" bpmn2nodeid="_3FB15B7B-C29B-49DB-ADF2-B48087C2DB16"><path marker-end="url(#closed-arrow)" d="M 350,480 L 350,670 M 350,670 L 500,670" style="stroke-width: 1; stroke: black;"/></g><g id="_3BA811F2-DD3F-4FEE-9749-CB959012F72A" bpmn2nodeid="_3BA811F2-DD3F-4FEE-9749-CB959012F72A"><path marker-end="url(#closed-arrow)" d="M 560,670 L 620,670" style="stroke-width: 1; stroke: black;"/></g><g id="_6D551561-C10A-4A34-9010-FDB66D83199D" bpmn2nodeid="_6D551561-C10A-4A34-9010-FDB66D83199D"><path marker-end="url(#closed-arrow)" d="M 380,450 L 520,450" style="stroke-width: 1; stroke: black;"/></g><g id="_D91C305D-AD65-431B-9141-EDE85301630F" bpmn2nodeid="_D91C305D-AD65-431B-9141-EDE85301630F"><path marker-end="url(#closed-arrow)" d="M 230,520 L 230,770 M 230,770 L 530,770 M 530,770 L 530,700" style="stroke-width: 1; stroke: black;"/></g><g id="_8B677815-52DE-4459-AEA0-F1DA49AD547C" data-kie-bpmn-node-id="_8B677815-52DE-4459-AEA0-F1DA49AD547C" bpmn2nodeid="_8B677815-52DE-4459-AEA0-F1DA49AD547C"><g><circle id="_8B677815-52DE-4459-AEA0-F1DA49AD547C?shapeType=BACKGROUND" cx="-450" cy="290.05" stroke-width="1.5" width="58.5" height="58.6" fill="#e8fae6" stroke="#4aa241" stroke-linejoin="round" r="29.25"/></g><circle id="_8B677815-52DE-4459-AEA0-F1DA49AD547C?shapeType=BORDER&amp;renderType=STROKE" cx="-450" cy="290.05" stroke-width="1.5" width="58.5" height="58.6" fill="transparent" stroke="#4aa241" stroke-linejoin="round" r="29.25"/></g><g id="_DEEF427D-B7E7-49E6-B6C9-1F6D128F3754" data-kie-bpmn-node-id="_DEEF427D-B7E7-49E6-B6C9-1F6D128F3754" bpmn2nodeid="_DEEF427D-B7E7-49E6-B6C9-1F6D128F3754"><g><rect id="_DEEF427D-B7E7-49E6-B6C9-1F6D128F3754?shapeType=BACKGROUND" x="-339.25" y="240.75" stroke-width="1.5" width="158.5" height="98.6" fill="rgba(255, 255, 255, 0.9)" stroke="rgba(0, 0, 0, 1)" stroke-linejoin="round" rx="3" ry="3"/></g><rect id="_DEEF427D-B7E7-49E6-B6C9-1F6D128F3754?shapeType=BORDER&amp;renderType=STROKE" x="-339.25" y="240.75" stroke-width="0" width="158.5" height="98.6" fill="transparent" stroke="rgba(0, 0, 0, 1)" stroke-linejoin="round" rx="3" ry="3"/><g transform="translate(-336.25, 243.75)"><svg version="1.0" xmlns="http://www.w3.org/2000/svg" width="25" height="22.71825396825397" viewBox="0 0 252 229" preserveAspectRatio="xMidYMid meet"><g transform="translate(0, 229) scale(0.1, -0.1)" fill="black" stroke="none"><path d="M730 2196 c-241 -98 -407 -212 -496 -342 -103 -152 -117 -357 -37&#10;        -544 38 -90 92 -185 138 -242 74 -92 128 -182 166 -278 30 -77 34 -95 34 -185&#10;        0 -94 -2 -104 -34 -167 -18 -37 -56 -90 -83 -119 -55 -55 -168 -134 -245 -169&#10;        -83 -37 -98 -48 -107 -74 -6 -17 -6 -34 2 -51 l12 -25 837 0 838 0 100 50&#10;        c174 86 288 191 352 323 45 92 57 155 50 266 -10 169 -76 322 -214 494 -95&#10;        118 -162 267 -178 393 -9 68 18 173 60 239 71 112 230 222 430 299 139 54 155&#10;        65 155 112 0 67 45 64 -860 63 l-815 0 -105 -43z m1370 -93 c0 -5 -26 -24 -58&#10;        -43 -31 -19 -95 -73 -142 -120 -95 -95 -140 -172 -160 -278 -35 -175 40 -420&#10;        181 -593 101 -124 162 -236 193 -357 20 -77 20 -131 2 -197 -43 -156 -136&#10;        -253 -346 -362 l-55 -28 -647 -3 c-357 -1 -648 0 -648 4 0 4 34 40 75 81 127&#10;        127 175 238 175 404 0 174 -68 335 -228 541 -46 60 -116 192 -142 268 -6 19&#10;        -14 73 -17 120 -4 70 -2 95 15 143 54 152 208 277 471 383 l106 42 613 1 c336&#10;        1 612 -2 612 -6z"/><path d="M502 1794 c-28 -19 -30 -74 -4 -97 17 -15 72 -17 579 -17 530 0 561&#10;        1 576 18 23 25 21 68 -3 92 -20 20 -33 20 -573 20 -484 0 -555 -2 -575 -16z"/><path d="M497 1372 c-25 -27 -22 -78 5 -96 20 -14 91 -16 573 -16 612 0 595&#10;        -2 595 64 0 69 26 66 -597 66 -530 0 -561 -1 -576 -18z"/><path d="M767 892 c-10 -10 -17 -33 -17 -50 0 -64 -14 -62 600 -60 l553 3 19&#10;        26 c21 28 18 57 -8 84 -13 13 -90 15 -573 15 -528 0 -559 -1 -574 -18z"/><path d="M758 479 c-47 -27 -42 -95 8 -118 18 -8 183 -11 558 -11 524 0 534 0&#10;        560 21 32 25 35 70 6 99 -20 20 -33 20 -567 20 -351 0 -554 -4 -565 -11z"/></g></svg></g><svg x="0" y="calc(1.5em * 0)" style="overflow: visible;"><text transform="translate(-260,290)" text-anchor="middle" style="font-family: arial; font-size: 16px; line-height: 1.5em;"><tspan x="0" dy="0.355em">Loan Requested</tspan></text></svg></g><g id="_88749726-A913-44F0-9E2F-1072F3A82D42" data-kie-bpmn-node-id="_88749726-A913-44F0-9E2F-1072F3A82D42" bpmn2nodeid="_88749726-A913-44F0-9E2F-1072F3A82D42"><g><rect id="_88749726-A913-44F0-9E2F-1072F3A82D42?shapeType=BACKGROUND" x="100.75" y="100.75" stroke-width="1.5" width="158.5" height="98.6" fill="rgba(255, 255, 255, 0.9)" stroke="rgba(0, 0, 0, 1)" stroke-linejoin="round" rx="3" ry="3"/></g><rect id="_88749726-A913-44F0-9E2F-1072F3A82D42?shapeType=BORDER&amp;renderType=STROKE" x="100.75" y="100.75" stroke-width="0" width="158.5" height="98.6" fill="transparent" stroke="rgba(0, 0, 0, 1)" stroke-linejoin="round" rx="3" ry="3"/><g transform="translate(103.75, 103.75)"><svg version="1.0" xmlns="http://www.w3.org/2000/svg" width="25" height="22.71825396825397" viewBox="0 0 252 229" preserveAspectRatio="xMidYMid meet"><g transform="translate(0, 229) scale(0.1, -0.1)" fill="black" stroke="none"><path d="M730 2196 c-241 -98 -407 -212 -496 -342 -103 -152 -117 -357 -37&#10;        -544 38 -90 92 -185 138 -242 74 -92 128 -182 166 -278 30 -77 34 -95 34 -185&#10;        0 -94 -2 -104 -34 -167 -18 -37 -56 -90 -83 -119 -55 -55 -168 -134 -245 -169&#10;        -83 -37 -98 -48 -107 -74 -6 -17 -6 -34 2 -51 l12 -25 837 0 838 0 100 50&#10;        c174 86 288 191 352 323 45 92 57 155 50 266 -10 169 -76 322 -214 494 -95&#10;        118 -162 267 -178 393 -9 68 18 173 60 239 71 112 230 222 430 299 139 54 155&#10;        65 155 112 0 67 45 64 -860 63 l-815 0 -105 -43z m1370 -93 c0 -5 -26 -24 -58&#10;        -43 -31 -19 -95 -73 -142 -120 -95 -95 -140 -172 -160 -278 -35 -175 40 -420&#10;        181 -593 101 -124 162 -236 193 -357 20 -77 20 -131 2 -197 -43 -156 -136&#10;        -253 -346 -362 l-55 -28 -647 -3 c-357 -1 -648 0 -648 4 0 4 34 40 75 81 127&#10;        127 175 238 175 404 0 174 -68 335 -228 541 -46 60 -116 192 -142 268 -6 19&#10;        -14 73 -17 120 -4 70 -2 95 15 143 54 152 208 277 471 383 l106 42 613 1 c336&#10;        1 612 -2 612 -6z"/><path d="M502 1794 c-28 -19 -30 -74 -4 -97 17 -15 72 -17 579 -17 530 0 561&#10;        1 576 18 23 25 21 68 -3 92 -20 20 -33 20 -573 20 -484 0 -555 -2 -575 -16z"/><path d="M497 1372 c-25 -27 -22 -78 5 -96 20 -14 91 -16 573 -16 612 0 595&#10;        -2 595 64 0 69 26 66 -597 66 -530 0 -561 -1 -576 -18z"/><path d="M767 892 c-10 -10 -17 -33 -17 -50 0 -64 -14 -62 600 -60 l553 3 19&#10;        26 c21 28 18 57 -8 84 -13 13 -90 15 -573 15 -528 0 -559 -1 -574 -18z"/><path d="M758 479 c-47 -27 -42 -95 8 -118 18 -8 183 -11 558 -11 524 0 534 0&#10;        560 21 32 25 35 70 6 99 -20 20 -33 20 -567 20 -351 0 -554 -4 -565 -11z"/></g></svg></g><svg x="0" y="calc(1.5em * 0)" style="overflow: visible;"><text transform="translate(180,150)" text-anchor="middle" style="font-family: arial; font-size: 16px; line-height: 1.5em;"><tspan x="0" dy="-0.395em">Send automatic</tspan><tspan x="0" dy="1.5em">approval letter</tspan></text></svg></g><g id="_A6FAA1F3-D144-4988-8FC7-1A0E508ABF7D" data-kie-bpmn-node-id="_A6FAA1F3-D144-4988-8FC7-1A0E508ABF7D" bpmn2nodeid="_A6FAA1F3-D144-4988-8FC7-1A0E508ABF7D"><g><rect id="_A6FAA1F3-D144-4988-8FC7-1A0E508ABF7D?shapeType=BACKGROUND" x="1060.75" y="740.75" stroke-width="1.5" width="158.5" height="98.6" fill="rgba(255, 255, 255, 0.9)" stroke="rgba(0, 0, 0, 1)" stroke-linejoin="round" rx="3" ry="3"/></g><rect id="_A6FAA1F3-D144-4988-8FC7-1A0E508ABF7D?shapeType=BORDER&amp;renderType=STROKE" x="1060.75" y="740.75" stroke-width="0" width="158.5" height="98.6" fill="transparent" stroke="rgba(0, 0, 0, 1)" stroke-linejoin="round" rx="3" ry="3"/><g transform="translate(1063.75, 743.75)"><svg version="1.0" xmlns="http://www.w3.org/2000/svg" width="25" height="22.71825396825397" viewBox="0 0 252 229" preserveAspectRatio="xMidYMid meet"><g transform="translate(0, 229) scale(0.1, -0.1)" fill="black" stroke="none"><path d="M730 2196 c-241 -98 -407 -212 -496 -342 -103 -152 -117 -357 -37&#10;        -544 38 -90 92 -185 138 -242 74 -92 128 -182 166 -278 30 -77 34 -95 34 -185&#10;        0 -94 -2 -104 -34 -167 -18 -37 -56 -90 -83 -119 -55 -55 -168 -134 -245 -169&#10;        -83 -37 -98 -48 -107 -74 -6 -17 -6 -34 2 -51 l12 -25 837 0 838 0 100 50&#10;        c174 86 288 191 352 323 45 92 57 155 50 266 -10 169 -76 322 -214 494 -95&#10;        118 -162 267 -178 393 -9 68 18 173 60 239 71 112 230 222 430 299 139 54 155&#10;        65 155 112 0 67 45 64 -860 63 l-815 0 -105 -43z m1370 -93 c0 -5 -26 -24 -58&#10;        -43 -31 -19 -95 -73 -142 -120 -95 -95 -140 -172 -160 -278 -35 -175 40 -420&#10;        181 -593 101 -124 162 -236 193 -357 20 -77 20 -131 2 -197 -43 -156 -136&#10;        -253 -346 -362 l-55 -28 -647 -3 c-357 -1 -648 0 -648 4 0 4 34 40 75 81 127&#10;        127 175 238 175 404 0 174 -68 335 -228 541 -46 60 -116 192 -142 268 -6 19&#10;        -14 73 -17 120 -4 70 -2 95 15 143 54 152 208 277 471 383 l106 42 613 1 c336&#10;        1 612 -2 612 -6z"/><path d="M502 1794 c-28 -19 -30 -74 -4 -97 17 -15 72 -17 579 -17 530 0 561&#10;        1 576 18 23 25 21 68 -3 92 -20 20 -33 20 -573 20 -484 0 -555 -2 -575 -16z"/><path d="M497 1372 c-25 -27 -22 -78 5 -96 20 -14 91 -16 573 -16 612 0 595&#10;        -2 595 64 0 69 26 66 -597 66 -530 0 -561 -1 -576 -18z"/><path d="M767 892 c-10 -10 -17 -33 -17 -50 0 -64 -14 -62 600 -60 l553 3 19&#10;        26 c21 28 18 57 -8 84 -13 13 -90 15 -573 15 -528 0 -559 -1 -574 -18z"/><path d="M758 479 c-47 -27 -42 -95 8 -118 18 -8 183 -11 558 -11 524 0 534 0&#10;        560 21 32 25 35 70 6 99 -20 20 -33 20 -567 20 -351 0 -554 -4 -565 -11z"/></g></svg></g><svg x="0" y="calc(1.5em * 0)" style="overflow: visible;"><text transform="translate(1140,790)" text-anchor="middle" style="font-family: arial; font-size: 16px; line-height: 1.5em;"><tspan x="0" dy="-0.395em">Send rejection</tspan><tspan x="0" dy="1.5em">letter</tspan></text></svg></g><g id="_A874DA0B-545B-486D-82C0-3E11B421C919" data-kie-bpmn-node-id="_A874DA0B-545B-486D-82C0-3E11B421C919" bpmn2nodeid="_A874DA0B-545B-486D-82C0-3E11B421C919"><g><rect id="_A874DA0B-545B-486D-82C0-3E11B421C919?shapeType=BACKGROUND" x="1060.75" y="520.75" stroke-width="1.5" width="158.5" height="98.6" fill="rgba(255, 255, 255, 0.9)" stroke="rgba(0, 0, 0, 1)" stroke-linejoin="round" rx="3" ry="3"/></g><rect id="_A874DA0B-545B-486D-82C0-3E11B421C919?shapeType=BORDER&amp;renderType=STROKE" x="1060.75" y="520.75" stroke-width="0" width="158.5" height="98.6" fill="transparent" stroke="rgba(0, 0, 0, 1)" stroke-linejoin="round" rx="3" ry="3"/><g transform="translate(1063.75, 523.75)"><svg version="1.0" xmlns="http://www.w3.org/2000/svg" width="25" height="22.71825396825397" viewBox="0 0 252 229" preserveAspectRatio="xMidYMid meet"><g transform="translate(0, 229) scale(0.1, -0.1)" fill="black" stroke="none"><path d="M730 2196 c-241 -98 -407 -212 -496 -342 -103 -152 -117 -357 -37&#10;        -544 38 -90 92 -185 138 -242 74 -92 128 -182 166 -278 30 -77 34 -95 34 -185&#10;        0 -94 -2 -104 -34 -167 -18 -37 -56 -90 -83 -119 -55 -55 -168 -134 -245 -169&#10;        -83 -37 -98 -48 -107 -74 -6 -17 -6 -34 2 -51 l12 -25 837 0 838 0 100 50&#10;        c174 86 288 191 352 323 45 92 57 155 50 266 -10 169 -76 322 -214 494 -95&#10;        118 -162 267 -178 393 -9 68 18 173 60 239 71 112 230 222 430 299 139 54 155&#10;        65 155 112 0 67 45 64 -860 63 l-815 0 -105 -43z m1370 -93 c0 -5 -26 -24 -58&#10;        -43 -31 -19 -95 -73 -142 -120 -95 -95 -140 -172 -160 -278 -35 -175 40 -420&#10;        181 -593 101 -124 162 -236 193 -357 20 -77 20 -131 2 -197 -43 -156 -136&#10;        -253 -346 -362 l-55 -28 -647 -3 c-357 -1 -648 0 -648 4 0 4 34 40 75 81 127&#10;        127 175 238 175 404 0 174 -68 335 -228 541 -46 60 -116 192 -142 268 -6 19&#10;        -14 73 -17 120 -4 70 -2 95 15 143 54 152 208 277 471 383 l106 42 613 1 c336&#10;        1 612 -2 612 -6z"/><path d="M502 1794 c-28 -19 -30 -74 -4 -97 17 -15 72 -17 579 -17 530 0 561&#10;        1 576 18 23 25 21 68 -3 92 -20 20 -33 20 -573 20 -484 0 -555 -2 -575 -16z"/><path d="M497 1372 c-25 -27 -22 -78 5 -96 20 -14 91 -16 573 -16 612 0 595&#10;        -2 595 64 0 69 26 66 -597 66 -530 0 -561 -1 -576 -18z"/><path d="M767 892 c-10 -10 -17 -33 -17 -50 0 -64 -14 -62 600 -60 l553 3 19&#10;        26 c21 28 18 57 -8 84 -13 13 -90 15 -573 15 -528 0 -559 -1 -574 -18z"/><path d="M758 479 c-47 -27 -42 -95 8 -118 18 -8 183 -11 558 -11 524 0 534 0&#10;        560 21 32 25 35 70 6 99 -20 20 -33 20 -567 20 -351 0 -554 -4 -565 -11z"/></g></svg></g><svg x="0" y="calc(1.5em * 0)" style="overflow: visible;"><text transform="translate(1140,570)" text-anchor="middle" style="font-family: arial; font-size: 16px; line-height: 1.5em;"><tspan x="0" dy="-0.395em">Send approval</tspan><tspan x="0" dy="1.5em">letter</tspan></text></svg></g><g id="_C257CB79-D83D-4FBB-8263-666FF9A226E2" data-kie-bpmn-node-id="_C257CB79-D83D-4FBB-8263-666FF9A226E2" bpmn2nodeid="_C257CB79-D83D-4FBB-8263-666FF9A226E2"><g><rect id="_C257CB79-D83D-4FBB-8263-666FF9A226E2?shapeType=BACKGROUND" x="-91.25" y="268.75" transform="rotate(45,-70,290.05)" stroke-width="1.5" width="41.78571428571429" height="41.85714285714286" fill="#fef5ea" stroke="#ec7b08" stroke-linejoin="round" rx="5" ry="5"/></g><rect id="_C257CB79-D83D-4FBB-8263-666FF9A226E2?shapeType=BORDER&amp;renderType=STROKE" x="-91.25" y="268.75" transform="rotate(45,-70,290.05)" stroke-width="1.5" width="41.78571428571429" height="41.85714285714286" fill="transparent" stroke="#ec7b08" stroke-linejoin="round" rx="5" ry="5"/><line x1="-80" y1="280.05" x2="-60" y2="300.05" stroke="#ec7b08" stroke-width="4.5"/><line x1="-60" y1="280.05" x2="-80" y2="300.05" stroke="#ec7b08" stroke-width="4.5"/><svg x="0" y="calc(1.5em * 0)" style="overflow: visible;"><text transform="translate(-70,324)" text-anchor="middle" style="font-family: arial; font-size: 16px; line-height: 1.5em;"><tspan x="0" dy="0.71em">Approve</tspan><tspan x="0" dy="1.5em">or</tspan><tspan x="0" dy="1.5em">review?</tspan></text></svg></g><g id="_70E852B3-036B-461D-9A60-E392E5631E81" data-kie-bpmn-node-id="_70E852B3-036B-461D-9A60-E392E5631E81" bpmn2nodeid="_70E852B3-036B-461D-9A60-E392E5631E81"><g><rect id="_70E852B3-036B-461D-9A60-E392E5631E81?shapeType=BACKGROUND" x="908.75" y="648.75" transform="rotate(45,930,670.05)" stroke-width="1.5" width="41.78571428571429" height="41.85714285714286" fill="#fef5ea" stroke="#ec7b08" stroke-linejoin="round" rx="5" ry="5"/></g><rect id="_70E852B3-036B-461D-9A60-E392E5631E81?shapeType=BORDER&amp;renderType=STROKE" x="908.75" y="648.75" transform="rotate(45,930,670.05)" stroke-width="1.5" width="41.78571428571429" height="41.85714285714286" fill="transparent" stroke="#ec7b08" stroke-linejoin="round" rx="5" ry="5"/><line x1="920" y1="660.05" x2="940" y2="680.05" stroke="#ec7b08" stroke-width="4.5"/><line x1="940" y1="660.05" x2="920" y2="680.05" stroke="#ec7b08" stroke-width="4.5"/><svg x="0" y="calc(1.5em * 0)" style="overflow: visible;"><text transform="translate(930,704)" text-anchor="middle" style="font-family: arial; font-size: 16px; line-height: 1.5em;"><tspan x="0" dy="0.71em">Approved?</tspan></text></svg></g><g id="_A4BD597C-3514-47C8-A842-18CA5902882D" data-kie-bpmn-node-id="_A4BD597C-3514-47C8-A842-18CA5902882D" bpmn2nodeid="_A4BD597C-3514-47C8-A842-18CA5902882D"><g><circle id="_A4BD597C-3514-47C8-A842-18CA5902882D?shapeType=BACKGROUND" cx="1330" cy="790.05" stroke-width="6" width="54" height="54.1" fill="#fce7e7" stroke="#a30000" stroke-linejoin="round" r="27"/></g><circle id="_A4BD597C-3514-47C8-A842-18CA5902882D?shapeType=BORDER&amp;renderType=STROKE" cx="1330" cy="790.05" stroke-width="6" width="54" height="54.1" fill="transparent" stroke="#a30000" stroke-linejoin="round" r="27"/><svg x="0" y="calc(1.5em * 0)" style="overflow: visible;"><text transform="translate(1330,824)" text-anchor="middle" style="font-family: arial; font-size: 16px; line-height: 1.5em;"><tspan x="0" dy="0.71em">Loan</tspan><tspan x="0" dy="1.5em">rejected</tspan></text></svg></g><g id="_78B500F4-8125-44F6-9EE8-FF8B8E436A95" data-kie-bpmn-node-id="_78B500F4-8125-44F6-9EE8-FF8B8E436A95" bpmn2nodeid="_78B500F4-8125-44F6-9EE8-FF8B8E436A95"><g><circle id="_78B500F4-8125-44F6-9EE8-FF8B8E436A95?shapeType=BACKGROUND" cx="1330" cy="570.05" stroke-width="6" width="54" height="54.1" fill="#fce7e7" stroke="#a30000" stroke-linejoin="round" r="27"/></g><circle id="_78B500F4-8125-44F6-9EE8-FF8B8E436A95?shapeType=BORDER&amp;renderType=STROKE" cx="1330" cy="570.05" stroke-width="6" width="54" height="54.1" fill="transparent" stroke="#a30000" stroke-linejoin="round" r="27"/><svg x="0" y="calc(1.5em * 0)" style="overflow: visible;"><text transform="translate(1330,604)" text-anchor="middle" style="font-family: arial; font-size: 16px; line-height: 1.5em;"><tspan x="0" dy="0.71em">Loan</tspan><tspan x="0" dy="1.5em">approved</tspan></text></svg></g><g id="_71DDA0EB-6377-4B20-B2E1-91C1DF0BCD30" data-kie-bpmn-node-id="_71DDA0EB-6377-4B20-B2E1-91C1DF0BCD30" bpmn2nodeid="_71DDA0EB-6377-4B20-B2E1-91C1DF0BCD30"><g><circle id="_71DDA0EB-6377-4B20-B2E1-91C1DF0BCD30?shapeType=BACKGROUND" cx="350" cy="150.05" stroke-width="6" width="54" height="54.1" fill="#fce7e7" stroke="#a30000" stroke-linejoin="round" r="27"/></g><circle id="_71DDA0EB-6377-4B20-B2E1-91C1DF0BCD30?shapeType=BORDER&amp;renderType=STROKE" cx="350" cy="150.05" stroke-width="6" width="54" height="54.1" fill="transparent" stroke="#a30000" stroke-linejoin="round" r="27"/><svg x="0" y="calc(1.5em * 0)" style="overflow: visible;"><text transform="translate(350,184)" text-anchor="middle" style="font-family: arial; font-size: 16px; line-height: 1.5em;"><tspan x="0" dy="0.71em">Loan</tspan><tspan x="0" dy="1.5em">automatically</tspan><tspan x="0" dy="1.5em">approved</tspan></text></svg></g><g id="_16893379-E161-4322-976C-494E469475BD" data-kie-bpmn-node-id="_16893379-E161-4322-976C-494E469475BD" bpmn2nodeid="_16893379-E161-4322-976C-494E469475BD"><g><rect id="_16893379-E161-4322-976C-494E469475BD?shapeType=BACKGROUND" x="620.75" y="620.75" stroke-width="1.5" width="158.5" height="98.6" fill="rgba(255, 255, 255, 0.9)" stroke="rgba(0, 0, 0, 1)" stroke-linejoin="round" rx="3" ry="3"/></g><rect id="_16893379-E161-4322-976C-494E469475BD?shapeType=BORDER&amp;renderType=STROKE" x="620.75" y="620.75" stroke-width="0" width="158.5" height="98.6" fill="transparent" stroke="rgba(0, 0, 0, 1)" stroke-linejoin="round" rx="3" ry="3"/><g transform="translate(623.75, 623.75)"><svg version="1.0" xmlns="http://www.w3.org/2000/svg" width="25" height="25.650557620817843" viewBox="0 0 269 276" preserveAspectRatio="xMidYMid meet"><g transform="translate(0, 276) scale(0.1, -0.1)" stroke="black" stroke-width="25"><path d="M1310 2724 c-160 -26 -279 -82 -372 -176 -76 -77 -118 -153 -142&#10;        -255 -44 -196 6 -453 121 -614 18 -26 33 -51 33 -56 0 -24 -44 -45 -116 -58&#10;        -319 -57 -613 -271 -777 -566 l-37 -66 2 -414 3 -414 23 -3 c16 -3 22 -10 22&#10;        -28 l0 -24 1258 0 1257 0 18 43 c15 38 17 84 17 437 l0 394 -32 85 c-62 165&#10;        -212 341 -374 438 -82 49 -222 101 -324 118 -84 15 -130 34 -130 55 0 4 21 42&#10;        48 86 72 120 101 217 128 430 8 58 -22 197 -57 270 -55 112 -149 207 -250 252&#10;        -114 50 -247 78 -319 66z m416 -614 c75 -7 134 -16 141 -23 10 -10 10 -27 -1&#10;        -82 -7 -39 -17 -79 -21 -90 -26 -71 -72 -149 -120 -204 -62 -70 -62 -63 2&#10;        -132 l33 -35 -2 -175 -3 -174 -400 0 -400 0 -3 173 -2 173 40 46 c22 25 40 52&#10;        40 60 0 7 -17 32 -39 56 -43 47 -101 136 -119 182 -21 54 -44 177 -36 185 5 5&#10;        27 2 49 -6 60 -22 273 -11 335 18 75 36 274 46 506 28z m194 -600 c275 -54&#10;        533 -270 626 -527 27 -74 30 -103 12 -104 -10 0 -10 -2 0 -6 9 -4 12 -86 12&#10;        -364 l0 -359 -229 0 -230 0 -1 220 c0 121 -3 227 -6 235 -7 17 -30 20 -39 5&#10;        -3 -6 -6 -97 -5 -203 0 -106 -3 -207 -6 -225 l-7 -32 -736 2 c-580 2 -736 6&#10;        -737 16 -1 6 -2 109 -3 227 -1 186 -3 216 -17 222 -8 3 -19 2 -24 -3 -5 -5&#10;        -10 -110 -12 -234 l-3 -225 -223 -3 -222 -2 0 387 0 388 39 67 c105 180 259&#10;        327 446 427 79 43 219 89 280 93 48 3 50 2 56 -27 4 -16 7 -98 8 -181 1 -129&#10;        3 -153 17 -158 20 -8 842 -8 872 0 22 6 22 8 22 188 0 101 3 186 6 189 4 4 16&#10;        5 28 2 12 -2 46 -9 76 -15z"/></g></svg></g><svg x="0" y="calc(1.5em * 0)" style="overflow: visible;"><text transform="translate(700,670)" text-anchor="middle" style="font-family: arial; font-size: 16px; line-height: 1.5em;"><tspan x="0" dy="-0.395em">Approve or reject</tspan><tspan x="0" dy="1.5em">loan</tspan></text></svg></g><g id="_C8CDEC2F-7864-4639-A1CB-5D27BAA7EBA4" data-kie-bpmn-node-id="_C8CDEC2F-7864-4639-A1CB-5D27BAA7EBA4" bpmn2nodeid="_C8CDEC2F-7864-4639-A1CB-5D27BAA7EBA4"><g><rect id="_C8CDEC2F-7864-4639-A1CB-5D27BAA7EBA4?shapeType=BACKGROUND" x="100.75" y="400.75" stroke-width="1.5" width="178.5" height="98.6" fill="rgba(255, 255, 255, 0.9)" stroke="rgba(0, 0, 0, 1)" stroke-linejoin="round" rx="3" ry="3"/></g><rect id="_C8CDEC2F-7864-4639-A1CB-5D27BAA7EBA4?shapeType=BORDER&amp;renderType=STROKE" x="100.75" y="400.75" stroke-width="0" width="178.5" height="98.6" fill="transparent" stroke="rgba(0, 0, 0, 1)" stroke-linejoin="round" rx="3" ry="3"/><g transform="translate(103.75, 403.75)"><svg width="30" height="30" viewBox="0 0 30 30" xmlns="http://www.w3.org/2000/svg" fill="none" stroke="black" stroke-width="1"><text x="15" y="25" text-anchor="middle" font-size="24" font-family="Arial" font-weight="light">🤖</text></svg></g><svg x="0" y="calc(1.5em * 0)" style="overflow: visible;"><text transform="translate(190,450)" text-anchor="middle" style="font-family: arial; font-size: 16px; line-height: 1.5em;"><tspan x="0" dy="-0.395em">AI Agent - Review</tspan><tspan x="0" dy="1.5em">Loan</tspan></text></svg></g><g id="_BBE08300-7714-48B1-9BB5-91FED19901C5" data-kie-bpmn-node-id="_BBE08300-7714-48B1-9BB5-91FED19901C5" bpmn2nodeid="_BBE08300-7714-48B1-9BB5-91FED19901C5"><g><rect id="_BBE08300-7714-48B1-9BB5-91FED19901C5?shapeType=BACKGROUND" x="328.75" y="428.75" transform="rotate(45,350,450.05)" stroke-width="1.5" width="41.78571428571429" height="41.85714285714286" fill="#fef5ea" stroke="#ec7b08" stroke-linejoin="round" rx="5" ry="5"/></g><rect id="_BBE08300-7714-48B1-9BB5-91FED19901C5?shapeType=BORDER&amp;renderType=STROKE" x="328.75" y="428.75" transform="rotate(45,350,450.05)" stroke-width="1.5" width="41.78571428571429" height="41.85714285714286" fill="transparent" stroke="#ec7b08" stroke-linejoin="round" rx="5" ry="5"/><line x1="340" y1="440.05" x2="360" y2="460.05" stroke="#ec7b08" stroke-width="4.5"/><line x1="360" y1="440.05" x2="340" y2="460.05" stroke="#ec7b08" stroke-width="4.5"/><svg x="0" y="calc(1.5em * 0)" style="overflow: visible;"><text transform="translate(350,484)" text-anchor="middle" style="font-family: arial; font-size: 16px; line-height: 1.5em;"><tspan x="0" dy="0.71em">AI</tspan><tspan x="0" dy="1.5em">Agent</tspan><tspan x="0" dy="1.5em">review</tspan><tspan x="0" dy="1.5em">result?</tspan></text></svg></g><g id="_4F83CDB8-D30D-44EF-AB3B-BD5F22D66F48" data-kie-bpmn-node-id="_4F83CDB8-D30D-44EF-AB3B-BD5F22D66F48" bpmn2nodeid="_4F83CDB8-D30D-44EF-AB3B-BD5F22D66F48"><g><rect id="_4F83CDB8-D30D-44EF-AB3B-BD5F22D66F48?shapeType=BACKGROUND" x="520.75" y="400.75" stroke-width="1.5" width="178.5" height="98.6" fill="rgba(255, 255, 255, 0.9)" stroke="rgba(0, 0, 0, 1)" stroke-linejoin="round" rx="3" ry="3"/></g><rect id="_4F83CDB8-D30D-44EF-AB3B-BD5F22D66F48?shapeType=BORDER&amp;renderType=STROKE" x="520.75" y="400.75" stroke-width="0" width="178.5" height="98.6" fill="transparent" stroke="rgba(0, 0, 0, 1)" stroke-linejoin="round" rx="3" ry="3"/><g transform="translate(523.75, 403.75)"><svg version="1.0" xmlns="http://www.w3.org/2000/svg" width="25" height="22.71825396825397" viewBox="0 0 252 229" preserveAspectRatio="xMidYMid meet"><g transform="translate(0, 229) scale(0.1, -0.1)" fill="black" stroke="none"><path d="M730 2196 c-241 -98 -407 -212 -496 -342 -103 -152 -117 -357 -37&#10;        -544 38 -90 92 -185 138 -242 74 -92 128 -182 166 -278 30 -77 34 -95 34 -185&#10;        0 -94 -2 -104 -34 -167 -18 -37 -56 -90 -83 -119 -55 -55 -168 -134 -245 -169&#10;        -83 -37 -98 -48 -107 -74 -6 -17 -6 -34 2 -51 l12 -25 837 0 838 0 100 50&#10;        c174 86 288 191 352 323 45 92 57 155 50 266 -10 169 -76 322 -214 494 -95&#10;        118 -162 267 -178 393 -9 68 18 173 60 239 71 112 230 222 430 299 139 54 155&#10;        65 155 112 0 67 45 64 -860 63 l-815 0 -105 -43z m1370 -93 c0 -5 -26 -24 -58&#10;        -43 -31 -19 -95 -73 -142 -120 -95 -95 -140 -172 -160 -278 -35 -175 40 -420&#10;        181 -593 101 -124 162 -236 193 -357 20 -77 20 -131 2 -197 -43 -156 -136&#10;        -253 -346 -362 l-55 -28 -647 -3 c-357 -1 -648 0 -648 4 0 4 34 40 75 81 127&#10;        127 175 238 175 404 0 174 -68 335 -228 541 -46 60 -116 192 -142 268 -6 19&#10;        -14 73 -17 120 -4 70 -2 95 15 143 54 152 208 277 471 383 l106 42 613 1 c336&#10;        1 612 -2 612 -6z"/><path d="M502 1794 c-28 -19 -30 -74 -4 -97 17 -15 72 -17 579 -17 530 0 561&#10;        1 576 18 23 25 21 68 -3 92 -20 20 -33 20 -573 20 -484 0 -555 -2 -575 -16z"/><path d="M497 1372 c-25 -27 -22 -78 5 -96 20 -14 91 -16 573 -16 612 0 595&#10;        -2 595 64 0 69 26 66 -597 66 -530 0 -561 -1 -576 -18z"/><path d="M767 892 c-10 -10 -17 -33 -17 -50 0 -64 -14 -62 600 -60 l553 3 19&#10;        26 c21 28 18 57 -8 84 -13 13 -90 15 -573 15 -528 0 -559 -1 -574 -18z"/><path d="M758 479 c-47 -27 -42 -95 8 -118 18 -8 183 -11 558 -11 524 0 534 0&#10;        560 21 32 25 35 70 6 99 -20 20 -33 20 -567 20 -351 0 -554 -4 -565 -11z"/></g></svg></g><svg x="0" y="calc(1.5em * 0)" style="overflow: visible;"><text transform="translate(610,450)" text-anchor="middle" style="font-family: arial; font-size: 16px; line-height: 1.5em;"><tspan x="0" dy="-0.395em">Send AI-driven</tspan><tspan x="0" dy="1.5em">approval letter</tspan></text></svg></g><g id="_DC9F9E50-7373-46EE-8B87-F50C1C511ACA" data-kie-bpmn-node-id="_DC9F9E50-7373-46EE-8B87-F50C1C511ACA" bpmn2nodeid="_DC9F9E50-7373-46EE-8B87-F50C1C511ACA"><g><circle id="_DC9F9E50-7373-46EE-8B87-F50C1C511ACA?shapeType=BACKGROUND" cx="810" cy="450.05" stroke-width="6" width="54" height="54.1" fill="#fce7e7" stroke="#a30000" stroke-linejoin="round" r="27"/></g><circle id="_DC9F9E50-7373-46EE-8B87-F50C1C511ACA?shapeType=BORDER&amp;renderType=STROKE" cx="810" cy="450.05" stroke-width="6" width="54" height="54.1" fill="transparent" stroke="#a30000" stroke-linejoin="round" r="27"/><svg x="0" y="calc(1.5em * 0)" style="overflow: visible;"><text transform="translate(810,484)" text-anchor="middle" style="font-family: arial; font-size: 16px; line-height: 1.5em;"><tspan x="0" dy="0.71em">Loan</tspan><tspan x="0" dy="1.5em">approved</tspan><tspan x="0" dy="1.5em">by AI</tspan></text></svg></g><g id="_2544E30F-117D-402C-AE97-8BA2959FAD80" data-kie-bpmn-node-id="_2544E30F-117D-402C-AE97-8BA2959FAD80" bpmn2nodeid="_2544E30F-117D-402C-AE97-8BA2959FAD80"><g><circle id="_2544E30F-117D-402C-AE97-8BA2959FAD80?shapeType=BACKGROUND" cx="230" cy="495.05" stroke-width="1.5" width="58.5" height="58.6" fill="#fbefcf" stroke="#e6a000" stroke-linejoin="round" r="29.25"/></g><circle id="_2544E30F-117D-402C-AE97-8BA2959FAD80?shapeType=BORDER&amp;renderType=STROKE" cx="230" cy="495.05" stroke-width="1.5" width="58.5" height="58.6" fill="transparent" stroke="#e6a000" stroke-linejoin="round" r="29.25"/><circle cx="230" cy="495.05" stroke-width="1.5" width="58.5" height="58.6" fill="#fbefcf" stroke="#e6a000" stroke-linejoin="round" r="24.25"/><polygon points="226.5,495.05 214.105,511.47 225.495,477.3 235.545,499.41 245.93,478.64 236.215,516.16 226.5,495.05" stroke-width="1.5" stroke-linejoin="round" fill="transparent" stroke="#e6a000"/><svg x="0" y="calc(1.5em * 0)" style="overflow: visible;"><text transform="translate(230,529)" text-anchor="middle" style="font-family: arial; font-size: 16px; line-height: 1.5em;"><tspan x="0" dy="0.71em">AI</tspan><tspan x="0" dy="1.5em">Agent</tspan><tspan x="0" dy="1.5em">execution</tspan><tspan x="0" dy="1.5em">error</tspan></text></svg></g><g id="_28F5E125-EB16-473D-90E8-1662B57FDD57" data-kie-bpmn-node-id="_28F5E125-EB16-473D-90E8-1662B57FDD57" bpmn2nodeid="_28F5E125-EB16-473D-90E8-1662B57FDD57"><g><rect id="_28F5E125-EB16-473D-90E8-1662B57FDD57?shapeType=BACKGROUND" x="508.75" y="648.75" transform="rotate(45,530,670.05)" stroke-width="1.5" width="41.78571428571429" height="41.85714285714286" fill="#fef5ea" stroke="#ec7b08" stroke-linejoin="round" rx="5" ry="5"/></g><rect id="_28F5E125-EB16-473D-90E8-1662B57FDD57?shapeType=BORDER&amp;renderType=STROKE" x="508.75" y="648.75" transform="rotate(45,530,670.05)" stroke-width="1.5" width="41.78571428571429" height="41.85714285714286" fill="transparent" stroke="#ec7b08" stroke-linejoin="round" rx="5" ry="5"/><line x1="520" y1="660.05" x2="540" y2="680.05" stroke="#ec7b08" stroke-width="4.5"/><line x1="540" y1="660.05" x2="520" y2="680.05" stroke="#ec7b08" stroke-width="4.5"/></g></g></svg>